<svg width="150" height="150" viewBox="0 0 150 150" fill="none" xmlns="http://www.w3.org/2000/svg">
<rect width="150" height="150" rx="10" fill="#537FE7"/>
<path d="M98.4077 87.4763C98.4077 91.6008 97.9225 95.4826 96.952 99.1218C96.0624 102.761 94.4451 105.956 92.0998 108.705C89.8354 111.374 86.7217 113.517 82.7591 115.134C78.8773 116.671 73.9442 117.439 67.9596 117.439C62.4603 117.439 57.7293 116.792 53.7666 115.498C49.8039 114.123 46.5286 112.546 43.9407 110.767L50.2487 96.0892C52.594 97.4641 55.101 98.6771 57.7698 99.7284C60.4385 100.78 63.3499 101.305 66.5039 101.305C71.1136 101.305 74.4294 100.173 76.4511 97.9088C78.4728 95.6444 79.4838 91.8434 79.4838 86.5059V31.6749H98.4077V87.4763Z" fill="white"/>
</svg>
